<?xml version="1.0" encoding="utf-8"?>
<!-- Generator: Adobe Illustrator 21.0.0, SVG Export Plug-In . SVG Version: 6.00 Build 0)  -->
<svg version="1.1" id="Layer_1" xmlns="http://www.w3.org/2000/svg" xmlns:xlink="http://www.w3.org/1999/xlink" x="0px" y="0px"
	 viewBox="0 0 100.6 117" style="enable-background:new 0 0 100.6 117;" xml:space="preserve">
<style type="text/css">
	.st0{clip-path:url(#SVGID_2_);}
	.st1{opacity:0.5;clip-path:url(#SVGID_4_);}
	.st2{clip-path:url(#SVGID_6_);fill:#FFFFFF;}
	.st3{clip-path:url(#SVGID_4_);fill:#FFFFFF;}
	.st4{clip-path:url(#SVGID_8_);fill:#FFFFFF;}
	.st5{clip-path:url(#SVGID_10_);fill:#FFFFFF;}
	.st6{clip-path:url(#SVGID_12_);fill:#FFFFFF;}
	.st7{clip-path:url(#SVGID_14_);fill:#FFFFFF;}
</style>
<g>
	<defs>
		<rect id="SVGID_1_" width="100.6" height="117"/>
	</defs>
	<clipPath id="SVGID_2_">
		<use xlink:href="#SVGID_1_"  style="overflow:visible;"/>
	</clipPath>
	<g class="st0">
		<defs>
			<rect id="SVGID_3_" y="0" width="100.6" height="117"/>
		</defs>
		<clipPath id="SVGID_4_">
			<use xlink:href="#SVGID_3_"  style="overflow:visible;"/>
		</clipPath>
		<g class="st1">
			<g>
				<defs>
					<rect id="SVGID_5_" x="0.3" y="0.9" width="99.7" height="85.9"/>
				</defs>
				<clipPath id="SVGID_6_">
					<use xlink:href="#SVGID_5_"  style="overflow:visible;"/>
				</clipPath>
				<path class="st2" d="M28.8,39.5l-0.5,0.6C28.4,40.1,28.6,40,28.8,39.5"/>
				<path class="st2" d="M77.7,51.5c0,0-0.1-0.1-0.1-0.1C77.7,51.5,77.7,51.5,77.7,51.5"/>
				<path class="st2" d="M11.2,62.4C11.2,62.4,11.2,62.4,11.2,62.4c0-0.1,0.1-0.2,0.1-0.2L11.2,62.4z"/>
				<path class="st2" d="M30.2,30c-5,8.5-6.8,10.5-11.7,19.4c-2.5,4.2-4.9,8.8-7.2,12.9c-0.8,2.2-3.1,5.4-4.1,7.9L6.4,71
					C6,71.9,5.6,72.9,5,73.6l0-0.1c-0.5,1.3-1.4,2.6-1.7,3.2l0-0.1l-0.8,1.5l0.1-0.3c-0.3,0.6-0.5,1.1-0.8,1.6
					c-0.3,0.5-0.5,1-0.8,1.4c-0.3,0.5-0.5,0.9-0.6,1.4c-0.2,0.8-0.2,1.7,0.3,2.5c0.4,0.8,1.1,1.4,1.8,1.7l0-0.3
					c0.7,0.3,1.5,0.5,2.4,0.5c0.7,0,1.3,0,1.9,0c0.9,0,1.7,0,2.4-0.1c1.5-0.1,3-0.1,5.1,0.1l-0.1,0.1c5.3-0.8,8.4,0.5,13.9-0.2
					c-0.7,0.1,0.3,0.1,0.2,0.2c2.5-0.1,5.2-0.1,5.3-0.7c1.8,0,1.5,0.2,1.7,0.4c0-0.3,1.6-0.4,3-0.4l-0.7,0.1l4.1-0.1L41,85.6
					c2.2,0.1,0.6,0.6,2.6,0.5l0-0.4c3,0.1,4.8,0.7,7.7,1c12.1,0.2,25.2-0.8,36.5-0.1l0.5,0.3c0.2,0.4,3.1-0.6,3.5-0.2l1.3-0.2
					c0.2,0,0.5,0.1,0.6,0.1c0.1,0,0.2,0,0.2,0.1c0,0-0.2,0-0.3,0.1c0.5,0,0.8,0,1.1,0c0.3,0,0.6,0,0.8,0c0.4,0,0.8-0.1,1.5-0.2
					c0.8,0,1.4-0.1,1.9-0.2c0.3-0.2,0.5-0.3,0.8-0.6c0.3-0.3,0.4-0.8,0.4-1c0-0.6,0-1.3-0.5-2.2c-0.5-0.9-1-1.7-1.5-2.6l-1-1.5
					c-1.2-1.9-2.4-3.8-3.6-6c-2.5-5.5-8.6-15.2-12.2-20.7c-5.1-7.7-9-17.8-14.3-25.7c-0.1-0.3-0.6-0.9-0.7-0.9L62,17.4
					c0,0-5.2-9.1-8.8-14.6L53,2.5c-0.1-0.1-0.2-0.3-0.3-0.4c-0.2-0.2-0.5-0.4-0.7-0.6C51.5,1.2,50.9,1,50.4,1
					c-1-0.1-1.9,0.3-2.4,0.8c-0.5,0.5-0.7,0.9-0.8,1.2c0,0.3,0.1,0.3,0.2,0.3c0.2-0.1,0.5-0.3,1-0.6c0.5-0.2,1.3-0.3,2,0.1
					c0.4,0.2,0.7,0.6,0.8,1c0.2,0.6,0.5,1.2,0.7,1.8c0.5,1.3,1.2,2.9,2,4.8l-0.2-0.1c2.2,4.2,3.6,6.8,5.6,9.4
					c-0.2,0.7,1.9,3.4,2.3,4.5L61.7,24c1.8,2.3,2.6,5.3,4.4,7.6c-0.1-0.1-0.3,0-0.6-0.6c1.1,1.7,2.6,4.1,2.3,4.4
					c2.5,4.2,5.7,10.1,7.7,12.5l-0.2-0.1c1.2,1.4,1.2,2,2.3,3.6c0,0.1,0.1,0.2,0,0.2c1.3,1.5,2.8,4.8,3.8,6.1l-0.1,0.2l2,3.3
					l-0.7-1.3c0.8,0.1,1.1,2.7,2.8,4.9c1.2,2.3,3.7,3.9,4.8,6.4c0.9,1-1-0.8,0.2,0.8c-0.2,0.2-0.6-0.7-0.6-0.1
					c1.1,1.6,1.3,2.9,2.6,4.8l-0.2,0.2c1,1.2,1.6,2.5,2.2,3.7c0.2,0.4,0.4,0.8,0.5,1.1c0.1,0.2,0.3,0.4,0.5,0.7
					c0.1,0.2,0.2,0.3,0.3,0.4c0.1,0.1,0,0.2-0.1,0.3c-0.2,0.1-0.5-0.1-0.7-0.1c-0.4-0.1-0.6-0.3-1.1,0l-0.1-0.1c0,0-0.1-0.1-0.2-0.1
					L93,82.6c-1.4-0.1-1,0.4-2.6,0.3c0.1-0.2-2-0.2-1.1-0.4c-3.5-0.3-7.1,0.5-11.8-0.1c-1,0.4-3.3,0.2-4.1,0.5
					c-0.1-0.2-4.7,0-2.1-0.4c0.2,0,0.6,0,0.6,0l0.3-0.2c-2.6-0.5-4.8,0.3-7.4,0.2c0.8,0.1,1.8,0.1,1.1,0.2l-2.4,0l0.5-0.2l-3.6-0.1
					l0.5,0.3c-1.8-0.1-2.4-0.6-4.4-0.2c-0.9,0.2,1.7,0.3-0.2,0.4c-2.4-0.2-5.9-0.4-8.9-0.5c0.3,0.3-0.5,0.3-1.4,0.3l-0.1-0.2
					c-3.2,0.3-1.2-0.5-4.4-0.3l0.3-0.2l-0.8,0.5c-2.9,0.5-1.5-0.5-4.7,0.2c1.3,0,0.6,0.5-1,0.4l0.4-0.2c-0.9,0-1.1,0.2-1.7,0.1
					c0.5-0.1,0.3-0.3-1-0.3l0.8-0.3l-2.4,0.4c-1.8-0.3-4.8,0.1-5.5-0.3c0,0-4-0.2-4.9,0.2c0.8-0.2-1.4-0.3-0.8-0.6
					c-1,0.3-4.1,0.5-5.3,0.2l0.2,0c-2.2-0.1-4.2,0-6,0c-0.9,0-1.8,0.1-2.8,0.1l-0.6,0c0,0-0.1,0-0.1,0c-0.1,0-0.2,0-0.2-0.1
					c-0.1,0.1-0.2,0.2-0.4,0.1c-0.1,0-0.2-0.1-0.4,0.1c-0.3-0.3,0-0.7,0.2-0.9l0.2-0.2c0.1-0.2,0.2-0.4,0.4-0.5
					c0.2-0.4,0.5-0.7,0.7-1c0.9-1.3,1.5-2.4,1.3-3.3c0.9-1.7,1.3-1.8,1.9-2.6l-0.2,0.4c1.7-3.1,2.2-4,3.5-6.3
					c0.6-1.2,0.2-1.6,1.5-3.6c-0.2,0.8,0.2-0.1,0.7-0.9c-0.3,0.5-0.3,0.7,0.4-0.2c0-0.2,0.1-0.4,0.2-0.6c0,0,0.1,0,0.1,0
					c0.7-1.3,0.5-1.1,0.1-0.5c0,0-0.1,0-0.2,0.1c1-1.2,2.1-3.7,2.5-3.7c2.1-3.9,3.4-6.8,5.1-10.1c0.4-0.3,0.1,0.6-0.4,1.5l1.2-2.3
					c0.2,0.2-0.6,1.4-1,2.1c1.9-2.5,2.8-5.8,5-8.8l0.2-0.8l0.1-0.2c-0.1,0,0.2-0.8,0.4-1.3c0.5-0.3,0.4,0.3,1.3-1.3
					c0.9-1.1,1.9-3.6,2.7-5.3c-0.5,0.9-0.5,0.5-0.3,0.1c0.4-0.8,0.9-1.1,1.2-1.8l0.3,0.1c-0.4,0.2,0.9-2.2,1-2.6
					c0.5-0.3-0.5,1.3-0.5,1.6c1.8-3.2,0.9-1.6,2.7-4.7c0.8-1.8-0.4,0.2-0.2-0.8c0.8-1.5,1.4-3.1,2.6-4.7L39,19.9
					c1.4-2.9,2.4-4.5,3.7-6.3c9.9-21.9-0.2-5.9-0.2-5.9C37.3,15.6,35.5,20.2,30.2,30"/>
			</g>
		</g>
		<path class="st3" d="M70.1,79l0.5-0.6C70.5,78.4,70.4,78.6,70.1,79"/>
		<path class="st3" d="M21.7,63.7c0,0,0.1,0.1,0.1,0.1C21.8,63.7,21.7,63.7,21.7,63.7"/>
		<path class="st3" d="M87.9,55.9C87.9,55.9,87.9,55.9,87.9,55.9c0,0.1-0.1,0.2-0.1,0.2L87.9,55.9z"/>
		<path class="st3" d="M68.7,88.7c5.1-8.6,6.9-10.6,11.8-19.7c2.5-4.3,5-8.9,7.3-13.1c0.8-2.2,3.1-5.5,4.2-8l0.7-0.8
			c0.4-0.9,0.8-1.9,1.4-2.6l0,0.1c0.5-1.3,1.4-2.6,1.7-3.3l0,0.1l0.8-1.5l-0.1,0.3c0.4-0.8,0.8-1.7,1.2-2.5l0.3-0.6l0.5-1
			c0.4-0.7,0.8-1.4,1.2-2.1c0.5-0.9,0.5-1.6,0.5-2.2l-0.3,0.3c0-0.3,0.1-0.6-0.1-0.9c-0.2-0.4-0.4-0.6-0.6-0.7
			c-0.4-0.3-0.9-0.5-1.6-0.6c-0.7-0.1-1.5,0-2.2,0c-0.6,0-1.3,0-1.9,0c-1.6,0.1-3.1,0.1-5.2-0.1l0.1-0.1c-5.4,0.8-8.5-0.5-14.1,0.2
			c0.7-0.1-0.3-0.1-0.2-0.2c-2.6,0.1-5.3,0.1-5.3,0.7c-1.9,0-1.5-0.2-1.8-0.4c0,0.3-1.6,0.4-3.1,0.4l0.7-0.1l-4.2,0.1l0.8,0.5
			c-2.2-0.1-0.6-0.6-2.7-0.5l0,0.4c-3.1-0.1-4.9-0.7-7.8-1c-12.3-0.2-25.5,0.8-37,0.1l-0.5-0.3c-0.2-0.4-3.2,0.6-3.6,0.2l-1.3,0.2
			c-0.4-0.1-1.2-0.2-0.5-0.3c-0.6,0-0.9,0-1.2,0c-0.1,0-0.3,0-0.4,0.1c-0.1,0-0.2,0-0.3,0c-0.1,0-0.3,0-0.5,0l-2.3-0.3
			c-0.5,0-1.1-0.1-1.5,0.1c-0.4,0.1-0.8,0.2-1,0.4c-0.3,0.2-0.5,0.3-0.7,0.5c-0.1,0.1-0.2,0.3-0.3,0.5c0,0.1,0,0.3-0.1,0.4
			c0,0.5,0,1.2,0.5,2.1c0.5,0.9,1,1.7,1.5,2.6c0.7,1.1,1.3,2.1,2,3.2c0.6,1,1.2,2.1,1.8,3.2c2.6,5.6,8.8,15.4,12.3,21
			c5.2,7.8,9.2,18.1,14.6,26c0.1,0.3,0.6,0.9,0.7,0.9l4.3,7.6c0,0,5.3,9.2,8.9,14.8c0.5,0.7,0.9,1.3,1.3,1.9
			c0.2,0.3,0.4,0.5,0.6,0.8c0.2,0.3,0.4,0.5,0.6,0.7c0.5,0.6,1.2,0.6,1.6,0.5c0.5-0.1,0.7-0.4,0.8-0.6c0.1-0.3,0.1-0.3,0-0.3
			c0,0-0.1,0-0.2,0c-0.1,0.1-0.3,0.2-0.6,0.3c-0.3,0-0.6,0-0.8-0.3c-0.2-0.6-0.4-1.2-0.7-2.2c-0.7-1.8-1.8-4.5-3.4-8.2l0.2,0.1
			c-2.2-4.3-3.7-6.9-5.7-9.6c0.2-0.7-1.9-3.5-2.3-4.5l0.1,0.1c-1.8-2.3-2.7-5.4-4.4-7.7c0.1,0.1,0.3,0,0.6,0.6
			c-1.1-1.7-2.6-4.1-2.4-4.4c-2.5-4.2-5.8-10.2-7.8-12.7l0.2,0.1c-1.2-1.4-1.2-2-2.4-3.6c0-0.1-0.1-0.3,0-0.2
			c-1.3-1.5-2.9-4.9-3.8-6.2l0.1-0.2l-2-3.4l0.7,1.3c-0.8-0.1-1.1-2.7-2.9-5c-1.2-2.3-3.8-4-4.9-6.5c-0.9-1,1,0.8-0.2-0.8
			c0.2-0.2,0.6,0.7,0.6,0.1c-1.1-1.6-1.3-2.9-2.6-4.8l0.2-0.2c-0.5-0.6-0.9-1.2-1.2-1.9l-0.3-0.5c-0.1-0.1-0.2-0.4-0.2-0.4
			C5.2,35,5.1,34.9,5,34.7c-0.1-0.3-0.2-0.5-0.3-0.7c-0.1-0.1-0.1-0.2-0.2-0.4c-0.1-0.1-0.2-0.3-0.1-0.4c0.7-0.1,1.2,0.1,1.5,0.2
			c0.2,0.1,0.3,0.1,0.4,0.2c0,0,0.1,0,0.1,0c0.1,0,0.1,0,0.2,0c0.3,0,0.6-0.1,1.1-0.1l1.3,0.3c1.4,0.1,1-0.4,2.6-0.3
			c-0.1,0.2,2,0.2,1.1,0.4c3.6,0.3,7.2-0.5,11.9,0.1c1-0.4,3.4-0.2,4.1-0.5c0.1,0.2,4.7,0,2.1,0.4c-0.2,0-0.6,0-0.6,0l-0.3,0.2
			c2.7,0.5,4.9-0.3,7.5-0.2c-0.8-0.1-1.8-0.1-1.1-0.2l2.5,0L38.1,34l3.7,0.1l-0.5-0.3c1.8,0.1,2.4,0.6,4.4,0.2
			c0.9-0.2-1.7-0.3,0.2-0.4c2.4,0.2,6,0.4,9,0.5c-0.3-0.3,0.5-0.3,1.4-0.3l0.1,0.2c3.2-0.3,1.2,0.5,4.4,0.3l-0.3,0.2l0.9-0.5
			c2.9-0.5,1.6,0.5,4.8-0.2c-1.3,0-0.6-0.5,1-0.4l-0.4,0.2c0.9-0.1,1.2-0.2,1.7-0.1c-0.5,0.1-0.3,0.3,1,0.3l-0.9,0.3l2.4-0.4
			C73,34,76,33.6,76.7,34c0,0,4,0.2,4.9-0.2c-0.8,0.2,1.4,0.3,0.8,0.6c1-0.3,4.1-0.5,5.3-0.2l-0.2,0c2.3,0.1,4.2,0,6.1,0
			c0.6,0,0.5,0,0.6-0.1c0.1,0,0.2,0,0.3,0c0.1,0,0.2,0,0.3,0c0.1,0,0,0.2-0.1,0.3c0.4-0.2,0.1,0.2,0.3,0.2l0,0c0,0,0.1,0,0.1,0l0,0
			c0,0.2-0.1,0.3-0.2,0.5c-0.1,0.1-0.2,0.3-0.3,0.4c-0.1,0.2-0.3,0.4-0.4,0.6c-0.5,0.8-1,1.5-1.4,2.2c-0.9,1.3-1.5,2.4-1.4,3.3
			c-0.9,1.7-1.4,1.8-1.9,2.7l0.2-0.4c-1.7,3.2-2.2,4.1-3.6,6.4c-0.6,1.2-0.2,1.7-1.5,3.7c0.2-0.8-0.3,0.1-0.7,0.9
			c0.3-0.5,0.3-0.7-0.4,0.2c0,0.2-0.1,0.4-0.2,0.6c0,0-0.1,0-0.1,0c-0.7,1.3-0.5,1.1-0.1,0.6c0,0,0.1,0,0.2-0.1
			c-1,1.2-2.1,3.8-2.5,3.7c-2.2,3.9-3.4,6.9-5.2,10.2c-0.4,0.3-0.1-0.6,0.4-1.5L75,70.8c-0.2-0.2,0.6-1.4,1-2.1
			c-1.9,2.5-2.9,5.9-5.1,8.9l-0.2,0.8l-0.1,0.2c0.1,0-0.2,0.8-0.4,1.3c-0.5,0.3-0.5-0.3-1.3,1.3c-0.9,1.1-2,3.6-2.8,5.3
			c0.5-0.9,0.5-0.5,0.3-0.1c-0.5,0.8-0.9,1.1-1.2,1.8l-0.3-0.1c0.4-0.2-0.9,2.2-1,2.6c-0.5,0.3,0.5-1.3,0.5-1.6
			c-1.8,3.2-0.9,1.6-2.7,4.8c-0.8,1.8,0.4-0.2,0.2,0.8c-0.8,1.5-1.5,3.1-2.6,4.7l0.6-0.4c-1.4,2.9-2.4,4.6-3.8,6.4
			c-10.1,22.2,0.2,6,0.2,6C61.5,103.3,63.3,98.7,68.7,88.7"/>
		<g class="st1">
			<g>
				<defs>
					<rect id="SVGID_7_" x="46.9" y="80.1" width="52.9" height="7.2"/>
				</defs>
				<clipPath id="SVGID_8_">
					<use xlink:href="#SVGID_7_"  style="overflow:visible;"/>
				</clipPath>
				<path class="st4" d="M55.4,83.1l0.1,0.1C55.5,83.1,55.5,83.1,55.4,83.1"/>
				<path class="st4" d="M90.9,83C90.9,83,90.9,83,90.9,83C90.9,83,90.9,83,90.9,83"/>
				<path class="st4" d="M60.8,87L60.8,87C60.8,87,60.8,87,60.8,87L60.8,87z"/>
				<path class="st4" d="M53.7,86.7c1.9,0.1,2.4,0.7,4.3,0.5c0.9,0,1.9-0.1,2.8-0.1c0.4-0.4,1.2,0,1.7-0.4l0.2,0.2
					c0.2-0.1,0.4-0.2,0.6-0.1l0,0.1c0.3-0.2,0.6-0.1,0.7-0.2l0,0.1l0.3,0l-0.1,0.1c0.5-0.2,0.9-0.2,1.3-0.1l0-0.3
					c0.9,0.3,1.2-0.3,2,0.1l0,0.1c1-0.8,1.6,0.5,2.6-0.2c-0.1,0.1,0.1,0.2,0,0.2c0.5-0.1,1-0.1,1-0.7c0.3,0,0.3,0.2,0.3,0.4
					c0-0.3,0.3-0.4,0.6-0.4L72,86l0.8-0.1l-0.2-0.5c0.4,0.1,0.1,0.6,0.5,0.5l0-0.4c0.6,0.1,0.9,0.7,1.5,1c2.3,0.2,4.8-0.8,7-0.1
					l0.1,0.3c0,0.4,0.6-0.6,0.7-0.2l0.3-0.2c0.1,0.1,0.2,0.2,0.1,0.3c0.2,0,0.2-0.1,0.4-0.2l0.2,0.3c0.9,0.2,1.7-0.3,2.7-0.2
					c1.2,0.5,3.3,0,4.6-0.2c0.9-0.3,1.8-0.1,2.8,0.2c0.2,0.1,0.5,0.1,0.7,0.2c0.1,0,0.2,0,0.4,0.1l0.2,0l0.3,0c0.8,0,1.7,0,2.4-0.2
					c0.1,0.1,0.3-0.1,0.3-0.2c0.2,0,0.4,0,0.6-0.1c0.2,0,0.4-0.1,0.5-0.2c0.1-0.1,0.3-0.1,0.4-0.2c0.1-0.1,0.3-0.1,0.4-0.3
					c0,0,0.1-0.1,0.2-0.4c0.1-0.1,0.1-0.3,0.1-0.4c0-0.2-0.1-0.4-0.1-0.6c-0.2-0.9-0.5-2.1-0.9-2.9c-0.4-0.8-0.8-1.2-1.2-1
					c-0.4,0.2-0.8,1.2-1.6,1.8l-0.1-0.1c-0.1,0.2-0.1,0.3,0,0.5c0.1,0.1,0.2,0.3,0.4,0.7c-0.7-0.5-0.4,0-0.7-0.2l0,0
					c0.1,0.2-0.1,0.1-0.3,0c-0.2-0.1-0.3-0.2-0.3,0c0,0,0-0.2,0-0.2c0,0-0.1,0.1-0.2,0.1c0,0-0.1,0-0.1,0c-0.1,0-0.1-0.1-0.1-0.2
					c-0.9,0.1-2.2-0.1-2.8,0.5l0-0.1c-0.3,0.4-0.4,0.1-0.8,0.2c0,0,0-0.1,0-0.1c-0.4,0.4-1.1,0.1-1.4,0.2l0-0.2l-0.7,0.1l0.3,0
					c-0.1,0.6-0.6-0.4-1.1,0c-0.5-0.1-1,1.3-1.5,1c-0.2,0.3,0.2-0.5-0.2-0.2c0-0.3,0.2-0.2,0.1-0.5c-0.4,0.2-0.6-0.3-1-0.1l0-0.2
					c-0.6,0.5-1.1-0.3-1.5,0.1c-0.6,0.2-0.4-0.7-1-0.3l-0.2-0.3c-0.3-0.1-0.2,0.4-0.5,0.3c0-0.2-0.4-0.2-0.2-0.4
					c-0.7-0.3-1.4,0.5-2.2-0.1c-0.2,0.4-0.6,0.2-0.8,0.5c0-0.2-0.9,0-0.4-0.4c0,0,0.1,0,0.1,0l0.1-0.2c-0.5-0.5-0.9,0.3-1.4,0.2
					c0.1,0.1,0.3,0.1,0.2,0.2l-0.5,0l0.1-0.2l-0.7-0.1l0.1,0.3c-0.3-0.1-0.5-0.6-0.8-0.2c-0.2,0.2,0.3,0.3,0,0.4
					c-0.4-0.2-1.1-0.4-1.7-0.5c0.1,0.3-0.1,0.3-0.3,0.3l0-0.2c-0.6,0.3-0.2-0.5-0.8-0.3l0.1-0.2l-0.2,0.5c-0.5,0.5-0.3-0.5-0.9,0.2
					c0.2,0,0.1,0.5-0.2,0.4l0.1-0.2c-0.2,0.1-0.2,0.2-0.3,0.1c0.1-0.1,0.1-0.3-0.2-0.3l0.2-0.3l-0.5,0.4c-0.4-0.3-0.9,0.1-1.1-0.3
					c0,0-0.8-0.2-0.9,0.2c0.2-0.2-0.3-0.3-0.1-0.6c-0.2,0.3-0.8,0.5-1,0.2l0,0c-0.9-0.3-1.5,0.4-2.2,0c0,0.3-0.4,0.1-0.3,0.5
					c-0.8,0.4-1.4-0.8-1.7,0.4c-0.4,0.1-0.4-0.3-0.6-0.3l0.1-0.1c-0.7,0.1-0.9,0.1-1.4,0.1c-0.3,0.1-0.3,0.6-0.7,0.5
					c0.1-0.2,0-0.2-0.2-0.2c0.1,0,0.1-0.1-0.1-0.3c0,0.1-0.1,0.1-0.1,0.1c0,0,0,0,0-0.1c-0.3,0.1-0.2,0.1-0.1,0.2c0,0,0,0.1,0,0.1
					c-0.3-0.3-0.8,0-0.8-0.3c-0.8,0.1-1.4,0.5-2.2,0.6c-0.1-0.2,0.1-0.4,0.3-0.4l-0.5,0.1c0-0.3,0.3-0.2,0.4-0.2
					c-0.6-0.4-1.2,0.4-1.9,0l-0.1,0.2l0,0c0,0.1-0.2,0.3-0.3,0.3c-0.1-0.2,0-0.5-0.3-0.5c-0.3-0.2-0.8,0.1-1.1,0.2
					c0.2,0,0.1,0.2,0,0.3c-0.2,0-0.3-0.2-0.4-0.1l0-0.3c0.1,0.3-0.5,0.3-0.5,0.4c-0.1-0.2,0.3-0.2,0.3-0.4c-0.7,0-0.3,0-1,0
					c-0.4,0.2,0.1,0.3-0.1,0.6c-0.3,0.1-0.7,0.3-1,0.1l0.1,0.3c-0.6,0.2-1,0.2-1.4-0.1c-1.1,0.5-1.9,0.8-2.4,1
					c-0.5,0.2-0.6,0.5-0.5,0.8c0.1,0.3,0.6,0.7,0.9,0.9c0.4,0.2,0.7,0.3,0.7,0.3c1.2,0.5,2,0.4,2.7,0.2c0.2-0.1,0.7-0.2,1.1-0.3
					C52.7,86.8,53.1,86.7,53.7,86.7"/>
			</g>
		</g>
		<g class="st1">
			<g>
				<defs>
					<rect id="SVGID_9_" x="16.7" y="12" width="24" height="43.7"/>
				</defs>
				<clipPath id="SVGID_10_">
					<use xlink:href="#SVGID_9_"  style="overflow:visible;"/>
				</clipPath>
				<path class="st5" d="M39.2,19.6L39,19.7C39.1,19.7,39.1,19.7,39.2,19.6"/>
				<path class="st5" d="M24,47C24,47,24,47,24,47C24,47,24,47,24,47"/>
				<path class="st5" d="M33.4,21.9L33.4,21.9C33.4,21.9,33.4,21.9,33.4,21.9L33.4,21.9z"/>
				<path class="st5" d="M36.7,16.6c-0.9,1.4-1.6,1.5-2.3,3.1c-0.4,0.7-0.7,1.5-1.1,2.2c0.2,0.5-0.5,0.9-0.4,1.5l-0.3,0
					c0,0.2,0,0.4-0.2,0.5l-0.1,0c0,0.3-0.2,0.5-0.1,0.6l-0.1,0l-0.1,0.3l-0.1-0.1c0,0.4-0.2,0.8-0.5,1.1l0.3,0.1
					c-0.7,0.5-0.3,1.1-1,1.5l-0.1,0c0.2,1.2-1.1,1-1,2.1c0-0.1-0.2,0-0.2-0.1c-0.1,0.4-0.3,0.8,0.2,1.1c-0.2,0.3-0.3,0.1-0.5,0.1
					c0.2,0.1,0.2,0.4,0.1,0.6l0-0.1l-0.3,0.6l0.5,0.1c-0.3,0.3-0.5-0.2-0.6,0.2l0.3,0.2c-0.3,0.4-1,0.4-1.5,0.7
					c-1.1,1.7-1.3,4.1-2.8,5.4l-0.3-0.1c-0.4-0.2,0.3,0.8-0.1,0.6l0.1,0.3c-0.1,0-0.2,0.1-0.3-0.1c-0.1,0.2-0.1,0.2,0,0.4l-0.3,0.1
					c-0.6,0.6-0.5,1.5-1,2.1c-1,0.6-1.5,2.5-1.7,3.7c-0.2,1.7-2.6,2.4-2.7,4.2c-0.1,0,0,0.2,0,0.2L18,50.9c0,0-0.1,0.2-0.2,0.4
					c-0.1,0.2-0.3,0.7-0.4,1c0,0,0,0.1,0,0.1l-0.2,0.4c-0.1,0.2-0.2,0.3-0.3,0.7c0,0.1-0.1,0.2-0.1,0.3c0,0.1,0,0.2,0,0.3
					c0,0.1,0,0.2,0,0.4c0,0.2,0.1,0.3,0.2,0.5c0.1,0.2,0.2,0.3,0.4,0.4c0.2,0.1,0.2,0.2,0.4,0.2c0.1,0,0.2,0.1,0.3,0.1l-0.8-0.5
					c0.8,0.4,1.4,0.3,1.6-1.3l-0.4,0.1c0,0,0,0.1,0,0.1c0,0,0,0,0,0c0,0,0.1,0,0.3,0c0.5,0.2,0.4,0.2,0.6,0.2c0.2,0,0.4,0,0.9-0.3
					l0,0.1c0,0,0.1-0.1,0.1-0.1c0.6-0.6,0.8-1,0.7-1.7c0.5,0.2,0.4-0.5,0.6-0.6l0,0c-0.2-0.6,0.8-0.7,0.7-1.3c0,0,0.2,0.1,0.1,0.2
					c0.1-0.3,0.2-0.8,0.5-0.7c0.3-0.8,1-1.7,0.8-2.4l0.1,0.1c-0.2-0.4,0.1-0.4,0.1-0.7c0,0,0.1,0,0.1,0c-0.2-0.5,0.4-0.9,0.4-1.2
					l0.2,0.1l0.3-0.6l-0.2,0.2c-0.5-0.4,0.6-0.2,0.5-0.8c0.3-0.3-0.7-1.4-0.2-1.6c-0.1-0.3,0.3,0.4,0.3,0c0.3,0.1,0.1,0.2,0.4,0.3
					c0-0.4,0.5-0.3,0.5-0.7l0.2,0.1C26.3,42,27.2,42,27,41.5c0.1-0.6,0.8,0,0.7-0.7l0.4,0c0.2-0.2-0.3-0.3,0-0.5
					c0.2,0.1,0.3-0.2,0.4,0c0.6-0.4,0.2-1.3,1-1.7c-0.3-0.3,0.1-0.6-0.1-0.8c0.2,0.1,0.4-0.7,0.5-0.1c0,0,0,0.1-0.1,0.1L30,38
					c0.6-0.2,0.2-0.8,0.4-1.2c-0.1,0.1-0.2,0.2-0.3,0.1l0.2-0.3l0.1,0.2l0.4-0.5l-0.3-0.1c0.3-0.2,0.7-0.1,0.5-0.5
					c-0.1-0.2-0.4,0.1-0.4-0.2c0.3-0.3,0.9-0.7,1.2-1.1c-0.3-0.1-0.2-0.2-0.2-0.4l0.2,0.1c0-0.6,0.6,0.1,0.6-0.5l0.1,0.1l-0.4-0.4
					c-0.2-0.7,0.6,0,0.2-0.8c-0.1,0.2-0.5-0.2-0.3-0.4l0.2,0.2c0-0.2,0-0.2,0.1-0.3c0.1,0.1,0.3,0.2,0.4,0l0.2,0.3l-0.2-0.6
					c0.4-0.1,0.3-0.7,0.7-0.7c0,0,0.5-0.5,0.2-0.8c0.1,0.2,0.4,0,0.6,0.2c-0.1-0.3-0.1-0.8,0.3-0.9l0,0c0.6-0.5,0.3-1.3,0.9-1.7
					c-0.3-0.1,0-0.3-0.3-0.5c0-0.8,1.3-0.8,0.4-1.5c0.1-0.3,0.4-0.2,0.5-0.3l0,0.1c0.2-0.6,0.3-0.7,0.5-1.1c0-0.2-0.4-0.5-0.1-0.8
					c0.1,0.2,0.2,0.1,0.2-0.1c0,0.1,0,0.2,0.3,0.1c0-0.1-0.1-0.1-0.1-0.2c0,0,0,0,0,0c0.1-0.3,0-0.2-0.1-0.2c0,0-0.1,0-0.1,0
					c0.4-0.1,0.3-0.6,0.7-0.5c0.3-0.7,0.2-1.3,0.4-1.9c0.2,0,0.3,0.2,0.2,0.4l0.2-0.4c0.2,0.1,0,0.3,0,0.4c0.6-0.2,0.1-1.2,0.8-1.5
					L39,19.7l0,0c-0.1-0.1-0.2-0.2-0.2-0.3c0.2,0,0.5,0.3,0.6,0c0.3-0.1,0.2-0.7,0.3-1c-0.1,0.1-0.2,0-0.2-0.1
					c0.1-0.1,0.3-0.1,0.3-0.3l0.3,0.1c-0.3-0.1-0.1-0.5-0.2-0.6c0.2,0,0.1,0.3,0.2,0.4c0.3-0.5,0.1-0.3,0.4-0.8
					c0-0.4-0.3-0.1-0.5-0.4c0.1-0.3,0-0.6,0.4-0.8l-0.3,0c0.1-0.6,0.3-0.8,0.7-1c0-4.6-2.3-2.2-2.3-2.2
					C37.2,13.7,37.5,14.8,36.7,16.6"/>
			</g>
		</g>
		<g class="st1">
			<g>
				<defs>
					<rect id="SVGID_11_" x="36" y="0" width="14.1" height="22"/>
				</defs>
				<clipPath id="SVGID_12_">
					<use xlink:href="#SVGID_11_"  style="overflow:visible;"/>
				</clipPath>
				<path class="st6" d="M36.6,17.4l0.1,0C36.7,17.3,36.6,17.3,36.6,17.4"/>
				<path class="st6" d="M44.9,3.1C44.9,3.1,44.9,3.1,44.9,3.1C44.9,3.1,44.9,3.1,44.9,3.1"/>
				<path class="st6" d="M41.2,16.9L41.2,16.9C41.2,16.9,41.2,16.9,41.2,16.9L41.2,16.9z"/>
				<path class="st6" d="M39.5,19.6c0.5-0.7,1.1-0.7,1.3-1.5c0.2-0.4,0.3-0.8,0.4-1.2c-0.3-0.4,0.2-0.5,0-0.8l0.3,0
					c-0.1-0.1-0.1-0.2,0-0.3l0.1,0c-0.1-0.2,0-0.3,0-0.3l0.1,0l0-0.1l0.1,0.1c-0.1-0.3,0-0.5,0.2-0.6l-0.3-0.1
					c0.5-0.2,0-0.6,0.5-0.7l0.1,0c-0.5-0.8,0.8-0.4,0.4-1.1c0.1,0.1,0.1,0.1,0.2,0.1c0-0.2,0.1-0.5-0.4-0.7c0.1-0.1,0.2,0,0.4,0.1
					c-0.2-0.1-0.2-0.3-0.2-0.4l0.1,0.1l0.1-0.3l-0.4-0.2c0.2-0.1,0.5,0.2,0.5,0l-0.3-0.2c0.2-0.2,0.8,0,1.2-0.1
					c0.6-0.8,0.4-2.3,1.5-2.7l0.3,0.1c0.4,0.2-0.4-0.6,0-0.4l-0.1-0.2c0.1,0,0.2,0,0.2,0.1c0.1-0.1,0-0.1-0.1-0.2L45.7,8
					c0.4-0.2,0.1-0.8,0.5-1.1c0.7-0.1,0.9-1.1,1-1.7c0-0.5,0.5-0.6,0.9-0.7c0.5-0.1,0.9-0.1,0.9-0.6c0.1,0,0-0.1,0-0.1
					c0.2-0.1,0.3-0.2,0.4-0.2c0,0,0.1,0,0.2-0.1c0,0,0.1-0.1,0.1-0.1c0,0,0-0.1,0-0.2c0-0.2,0.2-0.5,0.4-0.9c0.1-0.2,0.1-0.5,0-0.9
					c-0.1-0.4-0.5-0.8-1.2-1.1l0-0.1c-0.8-0.1-1.1,0.1-1.2,0.7c-0.4-0.5-0.4,0.2-0.6,0.1l0,0c0,0.5-0.7,0.1-0.7,0.6
					c0,0-0.1-0.2-0.1-0.2c-0.1,0.2-0.2,0.5-0.5,0.2c-0.3,0.4-0.9,0.8-0.7,1.4L45,2.7c0.2,0.4-0.1,0.2-0.1,0.5c0,0-0.1,0-0.1,0
					c0.2,0.4-0.3,0.4-0.3,0.6l-0.2-0.1L44.3,4l0.1-0.1c0.5,0.4-0.5,0-0.3,0.4c-0.2,0.1,0.7,1.1,0.4,1.1c0.2,0.3-0.3-0.4-0.2-0.1
					c-0.3-0.2-0.1-0.2-0.4-0.3c0,0.2-0.4,0-0.4,0.3l-0.2-0.1c0.2,0.5-0.6,0.2-0.3,0.6c0,0.3-0.7-0.3-0.5,0.3l-0.3-0.1
					c-0.1,0.1,0.3,0.3,0.1,0.3c-0.2-0.1-0.2,0.1-0.4-0.1c-0.5,0.1,0,0.8-0.6,0.8c0.3,0.3,0,0.3,0.2,0.6c-0.2-0.1-0.2,0.3-0.5-0.1
					c0,0,0-0.1,0.1,0l-0.2-0.2c-0.5,0,0,0.5-0.2,0.7c0.1,0,0.1-0.1,0.2,0l-0.1,0.2l-0.2-0.1l-0.3,0.2l0.2,0.1
					c-0.2,0.1-0.6-0.1-0.4,0.2c0.1,0.2,0.4,0,0.4,0.2c-0.3,0.1-0.6,0.2-0.8,0.4C40,9.5,40,9.6,40,9.7l-0.2-0.1
					c0.2,0.4-0.5-0.2-0.4,0.2l-0.1-0.1l0.4,0.3c0.3,0.5-0.5-0.1-0.1,0.4c0-0.1,0.5,0.2,0.3,0.3l-0.2-0.1c0,0.1,0.1,0.2,0,0.2
					c-0.1-0.1-0.3-0.2-0.3-0.1l-0.2-0.2l0.3,0.4c-0.3,0-0.1,0.4-0.5,0.3c0,0-0.3,0.2,0,0.5c-0.2-0.2-0.3,0-0.6-0.2
					c0.2,0.2,0.3,0.5,0,0.5l0,0c-0.4,0.2,0,0.8-0.4,0.9c0.3,0.1,0,0.2,0.4,0.3c0.2,0.5-1,0.3,0,0.9c0,0.2-0.3,0.1-0.4,0.1l0-0.1
					c-0.1,0.3-0.1,0.4-0.2,0.6c0,0.2,0.5,0.4,0.3,0.5c-0.2-0.2-0.2-0.1-0.2,0c0-0.1-0.1-0.1-0.2-0.1c0.1,0,0.1,0.1,0.1,0.1
					c0,0,0,0,0,0c0,0.1,0.1,0.2,0.1,0.1c0,0,0.1,0,0.1,0c-0.3,0-0.1,0.3-0.5,0.2c-0.1,0.4,0.1,0.8,0.1,1.1c-0.2,0-0.3-0.2-0.3-0.3
					l0,0.2c-0.2-0.1-0.1-0.2-0.1-0.3c-0.5,0.1,0.1,0.7-0.4,0.8l0.2,0.2l0,0c0.1,0,0.2,0.2,0.2,0.2c-0.2-0.1-0.5-0.2-0.5-0.1
					c-0.3,0-0.1,0.4,0,0.6c0.1-0.1,0.2,0,0.2,0.1c0,0.1-0.3,0-0.2,0.1l-0.3-0.1c0.3,0.1,0.2,0.3,0.3,0.4c-0.2-0.1-0.1-0.2-0.3-0.3
					c-0.1,0.3-0.1,0.1-0.2,0.4c0.1,0.3,0.3,0.1,0.5,0.3c0,0.2,0.1,0.4-0.1,0.5l0.3,0.1c0.1,0.3,0,0.5-0.4,0.5
					c0.6,1.4,1.3,1.8,1.8,1.9c0.5,0.1,0.9-0.2,0.9-0.2C39.9,21.3,39.3,20.6,39.5,19.6"/>
			</g>
		</g>
		<g class="st1">
			<g>
				<defs>
					<rect id="SVGID_13_" x="48.8" y="0.4" width="14.7" height="20.4"/>
				</defs>
				<clipPath id="SVGID_14_">
					<use xlink:href="#SVGID_13_"  style="overflow:visible;"/>
				</clipPath>
				<path class="st7" d="M58.6,18.7l0.1-0.1C58.7,18.6,58.6,18.7,58.6,18.7"/>
				<path class="st7" d="M51.3,5.7C51.3,5.7,51.3,5.7,51.3,5.7C51.3,5.7,51.3,5.7,51.3,5.7"/>
				<path class="st7" d="M61.2,14.9L61.2,14.9C61.2,14.9,61.2,14.9,61.2,14.9L61.2,14.9z"/>
				<path class="st7" d="M62.2,17.9c-0.2-0.8,0.2-1.2-0.3-1.9c-0.1-0.4-0.4-0.7-0.7-1.1c-0.5,0-0.2-0.5-0.6-0.5l0.2-0.2
					c-0.1,0-0.3-0.1-0.2-0.2l0.1,0c-0.2,0-0.2-0.2-0.3-0.2l0.1,0l-0.1-0.1l0.1,0c-0.3-0.1-0.4-0.3-0.4-0.5l-0.3,0.1
					c0.1-0.5-0.5-0.4-0.3-0.8l0.1,0c-0.9-0.1,0.1-0.9-0.7-1c0.1,0,0.1-0.1,0.2-0.1c-0.2-0.2-0.3-0.3-0.8-0.1
					c-0.1-0.1,0.1-0.2,0.3-0.3c-0.2,0.1-0.4,0-0.4-0.1l0.1,0L58,10.6l-0.4,0.3c0-0.2,0.5-0.3,0.3-0.4l-0.3,0.2c0-0.3,0.4-0.7,0.5-1
					c-0.3-1-1.8-1.4-1.7-2.6l0.2-0.2C57,6.6,55.9,7,56.2,6.7l-0.2,0c0-0.1,0.1-0.2,0.2-0.2c0-0.1-0.1-0.1-0.3-0.1l0.2-0.2
					c-0.1-0.5-0.7-0.5-0.8-0.9c0.2-0.7-0.8-1.3-1.4-1.6c-0.5-0.1-0.6-0.6-0.7-1.1c-0.1-0.5-0.3-1-0.9-1.1c0-0.1-0.1,0-0.2,0
					c-0.2-0.2-0.4-0.4-0.6-0.6c0,0-0.9-0.7-1.9-0.6c-0.5,0.1-0.8,0.3-0.8,0.8c0,0.5,0.2,1.2,0.1,2.2l-0.1,0.1
					c0.1,0.3,0.2,0.4,0.7,0.2c-0.3,0.5,0.2,0.2,0.1,0.4l0,0c0.4-0.2,0.1,0.5,0.5,0.4c0,0-0.2,0.1-0.2,0.1C50,4.6,50.2,4.7,50,5
					c0.3,0.2,0.5,0.7,1.1,0.5l-0.1,0c0.4-0.1,0.2,0.1,0.4,0.1c0,0,0,0.1-0.1,0.1C51.7,5.5,51.6,6,51.8,6l-0.2,0.1l0.2,0.2l0-0.1
					c0.5-0.3-0.2,0.4,0.3,0.4c0.1,0.2,1.3-0.4,1.2,0c0.3-0.1-0.4,0.2-0.2,0.2c-0.3,0.2-0.2,0.1-0.4,0.2c0.2,0-0.1,0.4,0.2,0.4
					l-0.2,0.1c0.5,0,0,0.6,0.4,0.5c0.3,0.1-0.5,0.5,0,0.5l-0.2,0.3c0,0.1,0.4-0.2,0.3,0C53,8.9,53.2,9,53,9
					c-0.1,0.4,0.7,0.2,0.4,0.8c0.4-0.1,0.3,0.1,0.6,0c-0.1,0.1,0.2,0.3-0.3,0.4c0,0,0,0,0-0.1l-0.2,0.1c-0.3,0.4,0.4,0.2,0.5,0.4
					c0-0.1,0-0.2,0.2-0.2l0.1,0.2l-0.2,0.1l0,0.3l0.2-0.2c0,0.2-0.4,0.4,0,0.4c0.2,0,0.2-0.3,0.4-0.2c-0.1,0.3-0.2,0.6-0.1,0.9
					c0.2-0.2,0.3-0.1,0.3-0.1l-0.2,0.1c0.4,0.1-0.4,0.3-0.1,0.4l-0.2,0.1l0.5-0.2c0.5,0-0.4,0.4,0.3,0.3c-0.1-0.1,0.5-0.3,0.4-0.1
					l-0.2,0.1c0.1,0,0.2,0,0.2,0.1c-0.1,0-0.3,0.1-0.2,0.2L54.9,13l0.5,0c-0.2,0.3,0.2,0.3,0,0.5c0,0,0,0.4,0.4,0.3
					c-0.2,0-0.2,0.2-0.5,0.3c0.3,0,0.6,0.1,0.4,0.3l0,0c-0.1,0.4,0.6,0.4,0.5,0.8c0.3-0.1,0.2,0.1,0.5-0.1c0.5,0.1-0.4,0.9,0.7,0.5
					c0.1,0.1-0.2,0.3-0.2,0.4l-0.1,0c0.2,0.2,0.3,0.3,0.3,0.5c0.1,0,0.6-0.2,0.6,0.1c-0.2,0-0.1,0.1-0.1,0.2c-0.1,0-0.1,0-0.2,0.1
					c0.1,0,0.1,0,0.1,0c0,0,0,0,0,0c0.1,0.1,0.2,0,0.2,0c0,0,0.1,0,0.1-0.1c-0.2,0.2,0.2,0.3-0.2,0.5c0.2,0.3,0.7,0.4,0.9,0.6
					c-0.2,0.1-0.3,0.1-0.4,0.1l0.1,0.2c-0.2,0.1-0.2,0-0.3-0.1c-0.3,0.4,0.6,0.3,0.4,0.7l0.2,0l0,0c0.1,0,0.3,0,0.3,0
					c-0.2,0.1-0.5,0.2-0.4,0.3c-0.2,0.2,0.2,0.3,0.4,0.3c0-0.1,0.1-0.1,0.2-0.1c0,0.1-0.2,0.2,0,0.2l-0.3,0.1c0.3-0.1,0.4,0,0.5,0
					c-0.2,0.1-0.2,0-0.4,0c0.1,0.3,0.1,0.1,0.2,0.4c0.3,0.1,0.3-0.1,0.5-0.2c0.1,0.1,0.4,0.1,0.3,0.4l0.2-0.2
					c0.3,0.2,0.3,0.3,0.1,0.6c1.4,0.5,2.2,0.3,2.6,0c0.4-0.3,0.4-0.8,0.4-0.8C63.7,18.8,62.8,18.7,62.2,17.9"/>
			</g>
		</g>
	</g>
</g>
</svg>
