<svg xmlns="http://www.w3.org/2000/svg" viewBox="0 0 74.05 66"><defs><style>.cls-1{fill:#01aae7;}.cls-2{fill:#012b55;}.cls-3{fill:#10294f;}.cls-4{fill:#1e3759;}.cls-5{fill:#435e75;}.cls-6{fill:#30516d;}.cls-7{fill:#fbfdfc;}.cls-8{fill:#19577e;}.cls-9{fill:#022d57;}.cls-10{fill:#f2f5f6;}.cls-11{fill:#dee4e8;}.cls-12{fill:#e9eef0;}.cls-13{fill:#e2e7eb;}.cls-14{fill:#d5dde3;}.cls-15{fill:#e3e8eb;}.cls-16{fill:#d1d9df;}.cls-17{fill:#e3e9ec;}.cls-18{fill:#ebeff1;}.cls-19{fill:#e5ebee;}.cls-20{fill:#e6ecef;}.cls-21{fill:#eaeef1;}.cls-22{fill:#c2ced6;}.cls-23{fill:#e7ecef;}.cls-24{fill:#0b2845;}.cls-25{fill:#b3e0f7;}.cls-26{fill:#b3dff9;}.cls-27{fill:#f3f4f4;}.cls-28{fill:#f5f6f7;}</style></defs><g id="Layer_2" data-name="Layer 2"><g id="Layer_1-2" data-name="Layer 1"><path class="cls-1" d="M18.75,54.88c-4.56-5.3-5.92-11.72-6.27-18.45-.31-5.94-.17-11.9-.81-17.83A36.73,36.73,0,0,0,8.84,7.44c-.49-1.07-.46-1.57.77-2.06,17.57-7,35.16-7.24,52.79-.3.86.34,1.58.52,1,1.83-2.85,6-3.39,12.46-3.52,19-.1,4.87.26,9.74-.43,14.59a25.66,25.66,0,0,1-2.55,8.08c-2.43.86-4.94.68-7.44.57-.67-.78,0-1.41.32-2,2.47-3.91,3.22-8.25,3.34-12.78s-.32-8.8.37-13.17a31.92,31.92,0,0,1,1.65-6.48c.83-2.19.77-2.42-1.44-3.27A42.05,42.05,0,0,0,41.5,8.56c-7.93-.55-15.75.13-23.26,3.07-.25.1-.51.17-.76.27-2.22.93-2.23.95-1.39,3.23a38.85,38.85,0,0,1,2.07,12.95,106.71,106.71,0,0,0,.69,11.73,19.32,19.32,0,0,0,6.73,12.78,2.42,2.42,0,0,1,.63.79c-.28,1.23-1.41,1.11-2.24,1.27-1.44.26-2.88.56-4.35.68A.85.85,0,0,1,18.75,54.88Z"/><path class="cls-2" d="M49.25,48.81l7.61-.25c2.56.58,5.16,1,7.36,2.6a3.93,3.93,0,0,1,2,2.88c.08,1.18.72,1.53,1.87,1.53,1.8,0,3.6.2,6,.35-3,2.79-3.92,5.71-1.06,9.15a20.71,20.71,0,0,0-6.31-.32c-.64.1-.86.06-.92-.77-.37-4.88-1.2-5.49-5.37-5.72-6.2-.34-12.2,1-18.2,2.23-6.66,1.37-13.27,3-20.06,3.68a25.78,25.78,0,0,1-10.42-.64c-2-.62-3.93-1.23-4.79-3.59-.47-1.29-2.12-1.31-3.33-1.6A33,33,0,0,0,0,57.86c0-.12,0-.31,0-.37,2.07-1.68,2.07-3.71,1-5.93-.7-1.5-.27-2,1.37-1.77,1.93.26,3.89.32,6,.47-.11,1.33-1.45,2.53-.49,4a.8.8,0,0,1,.17.58c.67,1.82,2.37,1.54,3.72,1.67,4.21.38,8.3-.53,12.37-1.44,7.21-1.61,14.32-3.7,21.65-4.78a45,45,0,0,1,6.56-.5c-.72,0-1.71,0-2.71,0a1.33,1.33,0,0,1-.55-.32A.51.51,0,0,1,49.25,48.81Z"/><path class="cls-3" d="M56.45,59.84C47.11,61.06,38,63.54,28.7,65a19.1,19.1,0,0,1-4.93.52c-.09-.43.1-.59.39-.63,8.42-1,16.59-3.37,24.94-4.78,1.85-.31,3.73-.46,5.6-.69C55.3,59.45,56.08,58.82,56.45,59.84Z"/><path class="cls-4" d="M7.87,54.81l0-.6c3.55,1.23,7.19,1,10.83.67l.82.06c.49-.12,1-.24.9.57a18.3,18.3,0,0,1-11,.61C8.78,55.94,8,55.73,7.87,54.81Z"/><path class="cls-5" d="M22.3,65.87a25,25,0,0,1-8.81-.57C16.35,65.31,19.25,64.7,22.3,65.87Z"/><path class="cls-6" d="M56.45,59.84c-.49-.54-1.2-.18-1.75-.43a16.24,16.24,0,0,1,8.49.43Z"/><path class="cls-7" d="M25.91,53.65C19.45,48.67,18,41.59,17.74,34c-.14-4.6-.06-9.2-.88-13.75A21.33,21.33,0,0,0,15,14.06c-.61-1.16-.38-1.58.75-2.05A52,52,0,0,1,45,8.51a48.09,48.09,0,0,1,10.63,3.14c.78.33,1.2.57.71,1.59-2.17,4.48-2.73,9.29-2.73,14.21,0,2.43,0,4.87,0,7.3-.05,5.12-1.17,9.91-4.35,14.06l-.08.12c-.47.38-1,.52-1.45.06s-.08-1.05.2-1.48a22.87,22.87,0,0,0,2.35-4.25,30.24,30.24,0,0,0,1.58-9.57c.15-4.25-.3-8.52.36-12.77a40,40,0,0,1,1.33-5.73c.61-2,.53-2.24-1.51-2.94a48.41,48.41,0,0,0-30.22-.44c-1.48.44-3.35.52-4.25,1.7-1,1.34.5,2.88.74,4.36a56.61,56.61,0,0,1,1.11,9.87,72.76,72.76,0,0,0,.89,12.94,17.66,17.66,0,0,0,5.91,10.8c.6.52,1.78,1.06.72,2.21A1.21,1.21,0,0,1,25.91,53.65Z"/><path class="cls-8" d="M25.91,53.65a1.11,1.11,0,0,1,1-.06.56.56,0,0,1,0,.61c-2.09.76-4.16,1.66-6.48,1.13l-.91-.39Z"/><path class="cls-9" d="M26.93,53.58h0c.81-.52.09-.76-.21-1-5.24-3.93-7-9.48-7.53-15.72-.44-5.59,0-11.23-1.08-16.78a24.38,24.38,0,0,0-1.59-5.64c-.44-1-.17-1.35.78-1.72,12-4.63,24-5.06,36.11-.64,1.2.44,1.73.8,1.1,2.25a27.57,27.57,0,0,0-2.08,10.27c-.08,2.84-.06,5.68-.08,8.52,0,7.34-.78,9.86-4.73,15.71.5.34,1,0,1.54.08,0,.13,0,.26,0,.39a1.94,1.94,0,0,1-1.56.79c-6.36.53-12.43,2.47-18.63,3.8C28.24,54.07,27.48,54.58,26.93,53.58Z"/><path class="cls-10" d="M26.93,53.58c2,.26,3.81-.58,5.67-1a148.56,148.56,0,0,1,16.59-3.22l4.85.12c.33,0,.72.07.75.49s-.32.56-.69.54c-10.65-.65-20.53,3.26-30.73,5.3a45.05,45.05,0,0,1-11.21,1.32,9.35,9.35,0,0,1-4.44-1.18c-.82-.48-.82-.86.15-1.1,2.29,1.64,4.91,1.48,7.49,1.28,1.71-.13,3.41-.5,5.12-.76C22.67,54.88,25,54.9,26.93,53.58Z"/><path class="cls-11" d="M35.67,59.45c-1.3-.17-1.85-.82-1.88-1.91a1.52,1.52,0,0,1,1.52-1.77c1.78-.11,1.51,1.5,1.78,2.45C37.5,59.64,35.77,58.63,35.67,59.45Z"/><path class="cls-12" d="M23.09,57.82c.53,0,1.26-.17,1.4.5.17.88-.1,1.83.27,2.71-.23.07-.62.27-.69.19-.6-.72-1.1-1.12-1.48.16,0,0-.45,0-.51-.11a4.8,4.8,0,0,1-.33-3C21.83,57.61,22.64,58,23.09,57.82Z"/><path class="cls-13" d="M32.82,56.44a1.35,1.35,0,0,1,.54,1.36c0,.69.73,1.55,0,2s-1-.87-1.74-1c-.51.34.44,1.36-.53,1.34-.71,0-.38-.86-.55-1.32s-.66-1.29-.17-1.87,1,.12,1.47.35C32.7,57.77,31.89,56.16,32.82,56.44Z"/><path class="cls-14" d="M18.45,61.47a3.92,3.92,0,0,1-3.24-.34.22.22,0,0,1-.09-.25c0-.08.05-.13.08-.13a2.52,2.52,0,0,0,.32-.69c.32-2.4.31-2.4,3.33-1.53L17,59.1c0,.64.94.12,1,.64,0,.82-.91.28-1.21.8l1.68.5a.26.26,0,0,1,.13.27C18.5,61.42,18.48,61.47,18.45,61.47Z"/><path class="cls-15" d="M28,60.68c-.87.08-.9-1-1.58-1.07-.5.36.54,1.39-.51,1.39-.74,0-.45-.83-.56-1.3s-.11-.93-.18-1.4.15-.87.63-.76c.64.14,1.28,1.49,1.87-.13.06-.18.48.26.5.61A4.18,4.18,0,0,1,28,60.68Z"/><path class="cls-16" d="M40.32,55a2.12,2.12,0,0,1,2.24-.29c-.79,1.13,1.52,1.54.62,2.74s-2,.59-3,.42A.77.77,0,0,1,40.7,57c.17-.07.48-.33.53.15.09-.46-.27-.24-.44-.29C39.66,56.5,39.88,55.8,40.32,55Z"/><path class="cls-17" d="M18.45,61.47,18.4,61a9.18,9.18,0,0,1,.32-1.17c.3-.71.08-2.22,1.33-1.72,1,.41,1,1.91,1.28,3,.07.29-.41.51-.54.34C20,60.43,19.22,61.46,18.45,61.47Z"/><path class="cls-18" d="M53.52,53.65c.25.25,1-.2,1.07.4,0,.17-.57.44-1,.73.4.53,1.25-.17,1.52.67-.45.67-1.31.56-1.9.47-1.61-.27-1-1.8-.93-2.6,0-1.72,1.62-.46,2.38-1.3C54.92,53.56,53.39,52.64,53.52,53.65Z"/><path class="cls-19" d="M51.49,52.79c.37.66-1.76.93,0,1.53-.39.68-.64,1.72-1.21,2-.92.38-.63-.73-.77-1.2C48.89,52.89,49,52.83,51.49,52.79Z"/><path class="cls-20" d="M15.2,60.75a1.6,1.6,0,0,0,0,.38c-1,.36-2.13,0-2.24-.75s.6-1.84,1-2.76c0-.09.37-.16.5-.1.48.22.43.64.25,1C14.28,59.42,13.91,60.27,15.2,60.75Z"/><path class="cls-21" d="M47.87,56.29c-1,.89-2,1.4-2.51.85a4.13,4.13,0,0,1-.64-2.87.45.45,0,0,1,.56-.42c.39.06.47.44.54.76C46,55.58,45.84,56.91,47.87,56.29Z"/><path class="cls-16" d="M48.92,55.7c.26.71,0,1.15-.44,1-1.08-.42-.65-1.57-.92-2.39-.15-.43-.13-1.21.48-1C49.27,53.69,48.51,55.07,48.92,55.7Z"/><path class="cls-22" d="M29.2,56.91c1.06.44.48,1.58.83,2.33.22.45.3,1.28-.48,1.14-1.16-.21-.49-1.45-.85-2.16C28.5,57.82,28.29,57.16,29.2,56.91Z"/><path class="cls-23" d="M40.19,57.89c-.4.29-.79,1.63-1.19,0a10.41,10.41,0,0,1-.35-2c0-1.22.54-1,1.19-.43A4.79,4.79,0,0,1,40.19,57.89Z"/><path class="cls-24" d="M40.19,57.89a5.55,5.55,0,0,1-.35-2.39l.48-.46c-.52,1.39.48,1.73,1.53,2.09a1.28,1.28,0,0,0-1.71.78Z"/><path class="cls-25" d="M36.88,21.48c1.52,7.83,3,15.59,4.56,23.33.32,1.56.06,2.16-1.68,2.06-2.55-.15-5.11-.06-7.67,0-.83,0-1.28-.15-1.05-1.14,1.85-8,3.67-16,5.51-24.06C36.56,21.6,36.66,21.58,36.88,21.48Z"/><path class="cls-26" d="M29.54,45.69l-7-18.42,8.73,3.57c.35.15.41.48.36.85q-.93,6.9-1.87,13.8S29.69,45.57,29.54,45.69Z"/><path class="cls-25" d="M42.84,45c-.53-4.31-1-8.63-1.6-12.94a1.07,1.07,0,0,1,.82-1.36c2.7-.94,5.4-1.9,8.51-3-2.55,6-5,11.71-7.37,17.39Z"/><path class="cls-27" d="M45.57,23.9a2.58,2.58,0,1,1-5.14-.22,2.43,2.43,0,0,1,2.68-2.42C44.73,21.33,45.42,22.4,45.57,23.9Z"/><path class="cls-28" d="M29.93,28.64A2.45,2.45,0,0,1,27.72,26a2.43,2.43,0,0,1,2.5-2.59,2.59,2.59,0,0,1,2.58,2.75A2.65,2.65,0,0,1,29.93,28.64Z"/></g></g></svg>